<mxfile host="Electron" modified="2023-08-15T15:03:47.308Z" agent="Mozilla/5.0 (X11; Linux x86_64) AppleWebKit/537.36 (KHTML, like Gecko) draw.io/21.2.8 Chrome/114.0.5735.106 Electron/25.1.1 Safari/537.36" etag="axUcsxvBzzJHCFKEzAWI" version="21.2.8" type="device" pages="3">
  <diagram id="-Cl7fdibUPo9CbiZJZZQ" name="basic_basic_bot">
    <mxGraphModel dx="1432" dy="881" grid="1" gridSize="10" guides="1" tooltips="1" connect="1" arrows="1" fold="1" page="1" pageScale="1" pageWidth="827" pageHeight="1169" math="0" shadow="0">
      <root>
        <mxCell id="0" />
        <mxCell id="1" parent="0" />
        <mxCell id="7uUfdilooZpwAQBmplKD-1" style="edgeStyle=orthogonalEdgeStyle;rounded=0;orthogonalLoop=1;jettySize=auto;html=1;exitX=0.5;exitY=0;exitDx=0;exitDy=0;endArrow=none;endFill=0;" edge="1" parent="1" source="7uUfdilooZpwAQBmplKD-4" target="7uUfdilooZpwAQBmplKD-5">
          <mxGeometry relative="1" as="geometry" />
        </mxCell>
        <mxCell id="7uUfdilooZpwAQBmplKD-2" style="edgeStyle=orthogonalEdgeStyle;rounded=0;orthogonalLoop=1;jettySize=auto;html=1;exitX=1;exitY=0.25;exitDx=0;exitDy=0;entryX=0;entryY=0.5;entryDx=0;entryDy=0;endArrow=none;endFill=0;" edge="1" parent="1" source="7uUfdilooZpwAQBmplKD-4" target="7uUfdilooZpwAQBmplKD-10">
          <mxGeometry relative="1" as="geometry" />
        </mxCell>
        <mxCell id="7uUfdilooZpwAQBmplKD-3" style="edgeStyle=orthogonalEdgeStyle;rounded=0;orthogonalLoop=1;jettySize=auto;html=1;exitX=1;exitY=0.75;exitDx=0;exitDy=0;entryX=0;entryY=0.5;entryDx=0;entryDy=0;endArrow=none;endFill=0;" edge="1" parent="1" source="7uUfdilooZpwAQBmplKD-4" target="7uUfdilooZpwAQBmplKD-15">
          <mxGeometry relative="1" as="geometry" />
        </mxCell>
        <mxCell id="7uUfdilooZpwAQBmplKD-4" value="Chassis" style="rounded=0;whiteSpace=wrap;html=1;" vertex="1" parent="1">
          <mxGeometry x="160" y="140" width="120" height="180" as="geometry" />
        </mxCell>
        <mxCell id="7uUfdilooZpwAQBmplKD-5" value="Ultrasonic sensor" style="rounded=0;whiteSpace=wrap;html=1;" vertex="1" parent="1">
          <mxGeometry x="174" y="80" width="92" height="40" as="geometry" />
        </mxCell>
        <mxCell id="7uUfdilooZpwAQBmplKD-6" style="edgeStyle=orthogonalEdgeStyle;rounded=0;orthogonalLoop=1;jettySize=auto;html=1;exitX=1;exitY=0.5;exitDx=0;exitDy=0;entryX=0;entryY=0.25;entryDx=0;entryDy=0;endArrow=none;endFill=0;" edge="1" parent="1" source="7uUfdilooZpwAQBmplKD-7" target="7uUfdilooZpwAQBmplKD-4">
          <mxGeometry relative="1" as="geometry" />
        </mxCell>
        <mxCell id="7uUfdilooZpwAQBmplKD-7" value="Wheel" style="rounded=0;whiteSpace=wrap;html=1;" vertex="1" parent="1">
          <mxGeometry x="80" y="150" width="50" height="70" as="geometry" />
        </mxCell>
        <mxCell id="7uUfdilooZpwAQBmplKD-8" style="edgeStyle=orthogonalEdgeStyle;rounded=0;orthogonalLoop=1;jettySize=auto;html=1;exitX=1;exitY=0.5;exitDx=0;exitDy=0;entryX=0;entryY=0.5;entryDx=0;entryDy=0;endArrow=none;endFill=0;" edge="1" parent="1" source="7uUfdilooZpwAQBmplKD-9" target="7uUfdilooZpwAQBmplKD-13">
          <mxGeometry relative="1" as="geometry" />
        </mxCell>
        <mxCell id="7uUfdilooZpwAQBmplKD-9" value="Wheel" style="rounded=0;whiteSpace=wrap;html=1;" vertex="1" parent="1">
          <mxGeometry x="20" y="240" width="50" height="70" as="geometry" />
        </mxCell>
        <mxCell id="7uUfdilooZpwAQBmplKD-10" value="Wheel" style="rounded=0;whiteSpace=wrap;html=1;" vertex="1" parent="1">
          <mxGeometry x="310" y="150" width="50" height="70" as="geometry" />
        </mxCell>
        <mxCell id="7uUfdilooZpwAQBmplKD-11" value="Wheel" style="rounded=0;whiteSpace=wrap;html=1;" vertex="1" parent="1">
          <mxGeometry x="370" y="240" width="50" height="70" as="geometry" />
        </mxCell>
        <mxCell id="7uUfdilooZpwAQBmplKD-12" style="edgeStyle=orthogonalEdgeStyle;rounded=0;orthogonalLoop=1;jettySize=auto;html=1;exitX=1;exitY=0.5;exitDx=0;exitDy=0;entryX=0;entryY=0.75;entryDx=0;entryDy=0;endArrow=none;endFill=0;" edge="1" parent="1" source="7uUfdilooZpwAQBmplKD-13" target="7uUfdilooZpwAQBmplKD-4">
          <mxGeometry relative="1" as="geometry" />
        </mxCell>
        <mxCell id="7uUfdilooZpwAQBmplKD-13" value="Motor" style="rounded=0;whiteSpace=wrap;html=1;" vertex="1" parent="1">
          <mxGeometry x="80" y="240" width="50" height="70" as="geometry" />
        </mxCell>
        <mxCell id="7uUfdilooZpwAQBmplKD-14" style="edgeStyle=orthogonalEdgeStyle;rounded=0;orthogonalLoop=1;jettySize=auto;html=1;exitX=1;exitY=0.5;exitDx=0;exitDy=0;entryX=0;entryY=0.5;entryDx=0;entryDy=0;endArrow=none;endFill=0;" edge="1" parent="1" source="7uUfdilooZpwAQBmplKD-15" target="7uUfdilooZpwAQBmplKD-11">
          <mxGeometry relative="1" as="geometry" />
        </mxCell>
        <mxCell id="7uUfdilooZpwAQBmplKD-15" value="Motor" style="rounded=0;whiteSpace=wrap;html=1;" vertex="1" parent="1">
          <mxGeometry x="310" y="240" width="50" height="70" as="geometry" />
        </mxCell>
      </root>
    </mxGraphModel>
  </diagram>
  <diagram name="basic_bot" id="cQQJ4J0c1fQY17vw0mcC">
    <mxGraphModel dx="2387" dy="1468" grid="1" gridSize="10" guides="1" tooltips="1" connect="1" arrows="1" fold="1" page="1" pageScale="1" pageWidth="827" pageHeight="1169" math="0" shadow="0">
      <root>
        <mxCell id="0" />
        <mxCell id="1" parent="0" />
        <mxCell id="9EKb8xWsWASG-cOFqdCC-1" value="Robot" style="swimlane;whiteSpace=wrap;html=1;points=[[0,0,0,0,0],[0,0.13,0,0,0],[0,0.17,0,0,0],[0,0.25,0,0,0],[0,0.33,0,0,0],[0,0.38,0,0,0],[0,0.5,0,0,0],[0,0.63,0,0,0],[0,0.67,0,0,0],[0,0.75,0,0,0],[0,0.83,0,0,0],[0,0.88,0,0,0],[0,1,0,0,0],[0.25,0,0,0,0],[0.25,1,0,0,0],[0.5,0,0,0,0],[0.5,1,0,0,0],[0.75,0,0,0,0],[0.75,1,0,0,0],[1,0,0,0,0],[1,0.25,0,0,0],[1,0.5,0,0,0],[1,0.75,0,0,0],[1,1,0,0,0]];" parent="1" vertex="1">
          <mxGeometry x="10" y="550" width="560" height="370" as="geometry">
            <mxRectangle x="10" y="50" width="80" height="30" as="alternateBounds" />
          </mxGeometry>
        </mxCell>
        <mxCell id="9EKb8xWsWASG-cOFqdCC-3" value="Chassis" style="swimlane;whiteSpace=wrap;html=1;" parent="9EKb8xWsWASG-cOFqdCC-1" vertex="1">
          <mxGeometry x="200" y="40" width="350" height="290" as="geometry">
            <mxRectangle x="200" y="40" width="90" height="30" as="alternateBounds" />
          </mxGeometry>
        </mxCell>
        <mxCell id="9EKb8xWsWASG-cOFqdCC-15" value="Motor" style="rounded=0;whiteSpace=wrap;html=1;" parent="9EKb8xWsWASG-cOFqdCC-3" vertex="1">
          <mxGeometry x="15" y="30" width="45" height="60" as="geometry" />
        </mxCell>
        <mxCell id="9EKb8xWsWASG-cOFqdCC-30" style="edgeStyle=orthogonalEdgeStyle;rounded=0;orthogonalLoop=1;jettySize=auto;html=1;exitX=0;exitY=0.5;exitDx=0;exitDy=0;entryX=1;entryY=0.5;entryDx=0;entryDy=0;fillColor=#ffe6cc;strokeColor=#d79b00;" parent="9EKb8xWsWASG-cOFqdCC-3" source="9EKb8xWsWASG-cOFqdCC-17" target="9EKb8xWsWASG-cOFqdCC-15" edge="1">
          <mxGeometry relative="1" as="geometry" />
        </mxCell>
        <mxCell id="9EKb8xWsWASG-cOFqdCC-17" value="Motor driver" style="rounded=0;whiteSpace=wrap;html=1;" parent="9EKb8xWsWASG-cOFqdCC-3" vertex="1">
          <mxGeometry x="85" y="30" width="95" height="60" as="geometry" />
        </mxCell>
        <mxCell id="9EKb8xWsWASG-cOFqdCC-55" style="edgeStyle=orthogonalEdgeStyle;rounded=0;orthogonalLoop=1;jettySize=auto;html=1;exitX=0.5;exitY=1;exitDx=0;exitDy=0;entryX=0.5;entryY=0;entryDx=0;entryDy=0;fillColor=#d5e8d4;strokeColor=#82b366;" parent="9EKb8xWsWASG-cOFqdCC-3" source="9EKb8xWsWASG-cOFqdCC-19" target="9EKb8xWsWASG-cOFqdCC-54" edge="1">
          <mxGeometry relative="1" as="geometry" />
        </mxCell>
        <mxCell id="9EKb8xWsWASG-cOFqdCC-63" style="edgeStyle=orthogonalEdgeStyle;rounded=0;orthogonalLoop=1;jettySize=auto;html=1;exitX=0;exitY=0.5;exitDx=0;exitDy=0;entryX=1;entryY=0.5;entryDx=0;entryDy=0;" parent="9EKb8xWsWASG-cOFqdCC-3" source="9EKb8xWsWASG-cOFqdCC-19" target="9EKb8xWsWASG-cOFqdCC-17" edge="1">
          <mxGeometry relative="1" as="geometry" />
        </mxCell>
        <mxCell id="9EKb8xWsWASG-cOFqdCC-65" style="edgeStyle=orthogonalEdgeStyle;rounded=0;orthogonalLoop=1;jettySize=auto;html=1;exitX=0;exitY=0.75;exitDx=0;exitDy=0;entryX=1;entryY=0.5;entryDx=0;entryDy=0;" parent="9EKb8xWsWASG-cOFqdCC-3" source="9EKb8xWsWASG-cOFqdCC-19" target="9EKb8xWsWASG-cOFqdCC-61" edge="1">
          <mxGeometry relative="1" as="geometry" />
        </mxCell>
        <mxCell id="9EKb8xWsWASG-cOFqdCC-99" style="edgeStyle=orthogonalEdgeStyle;rounded=0;orthogonalLoop=1;jettySize=auto;html=1;exitX=0.25;exitY=1;exitDx=0;exitDy=0;entryX=0.25;entryY=0;entryDx=0;entryDy=0;fillColor=#f8cecc;strokeColor=#b85450;" parent="9EKb8xWsWASG-cOFqdCC-3" source="9EKb8xWsWASG-cOFqdCC-19" target="9EKb8xWsWASG-cOFqdCC-54" edge="1">
          <mxGeometry relative="1" as="geometry" />
        </mxCell>
        <mxCell id="9EKb8xWsWASG-cOFqdCC-19" value="Computer (microcontroller)" style="rounded=0;whiteSpace=wrap;html=1;" parent="9EKb8xWsWASG-cOFqdCC-3" vertex="1">
          <mxGeometry x="224.5" y="75" width="95" height="50" as="geometry" />
        </mxCell>
        <mxCell id="9EKb8xWsWASG-cOFqdCC-66" style="edgeStyle=orthogonalEdgeStyle;rounded=0;orthogonalLoop=1;jettySize=auto;html=1;exitX=0;exitY=0.5;exitDx=0;exitDy=0;entryX=1;entryY=0.25;entryDx=0;entryDy=0;fillColor=#f8cecc;strokeColor=#b85450;" parent="9EKb8xWsWASG-cOFqdCC-3" source="9EKb8xWsWASG-cOFqdCC-20" target="9EKb8xWsWASG-cOFqdCC-17" edge="1">
          <mxGeometry relative="1" as="geometry" />
        </mxCell>
        <mxCell id="9EKb8xWsWASG-cOFqdCC-67" style="edgeStyle=orthogonalEdgeStyle;rounded=0;orthogonalLoop=1;jettySize=auto;html=1;exitX=0;exitY=0.75;exitDx=0;exitDy=0;entryX=1;entryY=0.25;entryDx=0;entryDy=0;fillColor=#f8cecc;strokeColor=#b85450;" parent="9EKb8xWsWASG-cOFqdCC-3" source="9EKb8xWsWASG-cOFqdCC-20" target="9EKb8xWsWASG-cOFqdCC-61" edge="1">
          <mxGeometry relative="1" as="geometry" />
        </mxCell>
        <mxCell id="9EKb8xWsWASG-cOFqdCC-68" style="edgeStyle=orthogonalEdgeStyle;rounded=0;orthogonalLoop=1;jettySize=auto;html=1;exitX=0.5;exitY=1;exitDx=0;exitDy=0;entryX=0.5;entryY=0;entryDx=0;entryDy=0;fillColor=#f8cecc;strokeColor=#b85450;" parent="9EKb8xWsWASG-cOFqdCC-3" source="9EKb8xWsWASG-cOFqdCC-20" target="9EKb8xWsWASG-cOFqdCC-19" edge="1">
          <mxGeometry relative="1" as="geometry" />
        </mxCell>
        <mxCell id="9EKb8xWsWASG-cOFqdCC-20" value="Battery" style="rounded=0;whiteSpace=wrap;html=1;" parent="9EKb8xWsWASG-cOFqdCC-3" vertex="1">
          <mxGeometry x="239.5" y="30" width="65" height="30" as="geometry" />
        </mxCell>
        <mxCell id="9EKb8xWsWASG-cOFqdCC-69" style="edgeStyle=orthogonalEdgeStyle;rounded=0;orthogonalLoop=1;jettySize=auto;html=1;exitX=0.75;exitY=0;exitDx=0;exitDy=0;entryX=0.75;entryY=1;entryDx=0;entryDy=0;fillColor=#d5e8d4;strokeColor=#82b366;" parent="9EKb8xWsWASG-cOFqdCC-3" source="9EKb8xWsWASG-cOFqdCC-54" target="9EKb8xWsWASG-cOFqdCC-19" edge="1">
          <mxGeometry relative="1" as="geometry" />
        </mxCell>
        <mxCell id="9EKb8xWsWASG-cOFqdCC-54" value="Ultrasonic sensor" style="rounded=0;whiteSpace=wrap;html=1;" parent="9EKb8xWsWASG-cOFqdCC-3" vertex="1">
          <mxGeometry x="226" y="190" width="92" height="40" as="geometry" />
        </mxCell>
        <mxCell id="9EKb8xWsWASG-cOFqdCC-60" value="Motor" style="rounded=0;whiteSpace=wrap;html=1;" parent="9EKb8xWsWASG-cOFqdCC-3" vertex="1">
          <mxGeometry x="15" y="110" width="45" height="60" as="geometry" />
        </mxCell>
        <mxCell id="9EKb8xWsWASG-cOFqdCC-62" style="edgeStyle=orthogonalEdgeStyle;rounded=0;orthogonalLoop=1;jettySize=auto;html=1;exitX=0;exitY=0.5;exitDx=0;exitDy=0;entryX=1;entryY=0.5;entryDx=0;entryDy=0;fillColor=#ffe6cc;strokeColor=#d79b00;" parent="9EKb8xWsWASG-cOFqdCC-3" source="9EKb8xWsWASG-cOFqdCC-61" target="9EKb8xWsWASG-cOFqdCC-60" edge="1">
          <mxGeometry relative="1" as="geometry" />
        </mxCell>
        <mxCell id="9EKb8xWsWASG-cOFqdCC-61" value="Motor driver" style="rounded=0;whiteSpace=wrap;html=1;" parent="9EKb8xWsWASG-cOFqdCC-3" vertex="1">
          <mxGeometry x="85" y="110" width="95" height="60" as="geometry" />
        </mxCell>
        <mxCell id="9EKb8xWsWASG-cOFqdCC-76" value="Mount" style="rounded=0;whiteSpace=wrap;html=1;" parent="9EKb8xWsWASG-cOFqdCC-3" vertex="1">
          <mxGeometry x="15" y="210" width="45" height="60" as="geometry" />
        </mxCell>
        <mxCell id="9EKb8xWsWASG-cOFqdCC-13" value="FL Wheel" style="rounded=0;whiteSpace=wrap;html=1;" parent="9EKb8xWsWASG-cOFqdCC-1" vertex="1">
          <mxGeometry x="10" y="70" width="120" height="60" as="geometry" />
        </mxCell>
        <mxCell id="9EKb8xWsWASG-cOFqdCC-14" value="FR Wheel" style="rounded=0;whiteSpace=wrap;html=1;" parent="9EKb8xWsWASG-cOFqdCC-1" vertex="1">
          <mxGeometry x="10" y="150" width="120" height="60" as="geometry" />
        </mxCell>
        <mxCell id="9EKb8xWsWASG-cOFqdCC-57" value="BL Wheel" style="rounded=0;whiteSpace=wrap;html=1;" parent="9EKb8xWsWASG-cOFqdCC-1" vertex="1">
          <mxGeometry x="10" y="220" width="120" height="60" as="geometry" />
        </mxCell>
        <mxCell id="9EKb8xWsWASG-cOFqdCC-58" value="BR Wheel" style="rounded=0;whiteSpace=wrap;html=1;" parent="9EKb8xWsWASG-cOFqdCC-1" vertex="1">
          <mxGeometry x="10" y="290" width="120" height="60" as="geometry" />
        </mxCell>
        <mxCell id="9EKb8xWsWASG-cOFqdCC-59" style="edgeStyle=orthogonalEdgeStyle;rounded=0;orthogonalLoop=1;jettySize=auto;html=1;exitX=0;exitY=0.5;exitDx=0;exitDy=0;entryX=1;entryY=0.5;entryDx=0;entryDy=0;" parent="9EKb8xWsWASG-cOFqdCC-1" source="9EKb8xWsWASG-cOFqdCC-15" target="9EKb8xWsWASG-cOFqdCC-13" edge="1">
          <mxGeometry relative="1" as="geometry" />
        </mxCell>
        <mxCell id="9EKb8xWsWASG-cOFqdCC-70" style="edgeStyle=orthogonalEdgeStyle;rounded=0;orthogonalLoop=1;jettySize=auto;html=1;exitX=0;exitY=0.5;exitDx=0;exitDy=0;entryX=1;entryY=0.5;entryDx=0;entryDy=0;" parent="9EKb8xWsWASG-cOFqdCC-1" source="9EKb8xWsWASG-cOFqdCC-60" target="9EKb8xWsWASG-cOFqdCC-14" edge="1">
          <mxGeometry relative="1" as="geometry" />
        </mxCell>
        <mxCell id="9EKb8xWsWASG-cOFqdCC-77" style="edgeStyle=orthogonalEdgeStyle;rounded=0;orthogonalLoop=1;jettySize=auto;html=1;exitX=0;exitY=0.5;exitDx=0;exitDy=0;entryX=1;entryY=0.5;entryDx=0;entryDy=0;" parent="9EKb8xWsWASG-cOFqdCC-1" source="9EKb8xWsWASG-cOFqdCC-76" target="9EKb8xWsWASG-cOFqdCC-57" edge="1">
          <mxGeometry relative="1" as="geometry" />
        </mxCell>
        <mxCell id="9EKb8xWsWASG-cOFqdCC-78" style="edgeStyle=orthogonalEdgeStyle;rounded=0;orthogonalLoop=1;jettySize=auto;html=1;exitX=0;exitY=0.5;exitDx=0;exitDy=0;entryX=1;entryY=0.5;entryDx=0;entryDy=0;" parent="9EKb8xWsWASG-cOFqdCC-1" source="9EKb8xWsWASG-cOFqdCC-76" target="9EKb8xWsWASG-cOFqdCC-58" edge="1">
          <mxGeometry relative="1" as="geometry" />
        </mxCell>
      </root>
    </mxGraphModel>
  </diagram>
  <diagram id="U78yrIXa85MhizPVXeoz" name="basic_bot_code_flow">
    <mxGraphModel dx="573" dy="352" grid="0" gridSize="10" guides="1" tooltips="1" connect="1" arrows="1" fold="1" page="1" pageScale="1" pageWidth="827" pageHeight="1169" math="0" shadow="0">
      <root>
        <mxCell id="0" />
        <mxCell id="1" parent="0" />
        <mxCell id="HUJ_rNuVP0fy5nguUogA-4" style="edgeStyle=orthogonalEdgeStyle;rounded=0;orthogonalLoop=1;jettySize=auto;html=1;exitX=0.5;exitY=1;exitDx=0;exitDy=0;entryX=0.5;entryY=0;entryDx=0;entryDy=0;" edge="1" parent="1" source="HUJ_rNuVP0fy5nguUogA-1" target="HUJ_rNuVP0fy5nguUogA-2">
          <mxGeometry relative="1" as="geometry" />
        </mxCell>
        <mxCell id="HUJ_rNuVP0fy5nguUogA-1" value="Pulse ultrasonic sensor" style="rounded=0;whiteSpace=wrap;html=1;" vertex="1" parent="1">
          <mxGeometry x="130" y="40" width="120" height="60" as="geometry" />
        </mxCell>
        <mxCell id="HUJ_rNuVP0fy5nguUogA-7" style="edgeStyle=orthogonalEdgeStyle;rounded=0;orthogonalLoop=1;jettySize=auto;html=1;exitX=0.5;exitY=1;exitDx=0;exitDy=0;entryX=0.5;entryY=0;entryDx=0;entryDy=0;" edge="1" parent="1" source="HUJ_rNuVP0fy5nguUogA-2" target="HUJ_rNuVP0fy5nguUogA-6">
          <mxGeometry relative="1" as="geometry" />
        </mxCell>
        <mxCell id="HUJ_rNuVP0fy5nguUogA-8" value="Yes" style="edgeLabel;html=1;align=center;verticalAlign=middle;resizable=0;points=[];" vertex="1" connectable="0" parent="HUJ_rNuVP0fy5nguUogA-7">
          <mxGeometry x="-0.2762" relative="1" as="geometry">
            <mxPoint as="offset" />
          </mxGeometry>
        </mxCell>
        <mxCell id="HUJ_rNuVP0fy5nguUogA-9" style="edgeStyle=orthogonalEdgeStyle;rounded=0;orthogonalLoop=1;jettySize=auto;html=1;exitX=1;exitY=0.5;exitDx=0;exitDy=0;" edge="1" parent="1" source="HUJ_rNuVP0fy5nguUogA-2">
          <mxGeometry relative="1" as="geometry">
            <mxPoint x="300.0000000000001" y="160" as="targetPoint" />
          </mxGeometry>
        </mxCell>
        <mxCell id="HUJ_rNuVP0fy5nguUogA-11" value="No" style="edgeLabel;html=1;align=center;verticalAlign=middle;resizable=0;points=[];" vertex="1" connectable="0" parent="HUJ_rNuVP0fy5nguUogA-9">
          <mxGeometry x="-0.2687" relative="1" as="geometry">
            <mxPoint as="offset" />
          </mxGeometry>
        </mxCell>
        <mxCell id="HUJ_rNuVP0fy5nguUogA-2" value="Is the object more than 10 cm away?" style="rounded=0;whiteSpace=wrap;html=1;" vertex="1" parent="1">
          <mxGeometry x="130" y="130" width="120" height="60" as="geometry" />
        </mxCell>
        <mxCell id="HUJ_rNuVP0fy5nguUogA-13" style="edgeStyle=orthogonalEdgeStyle;rounded=0;orthogonalLoop=1;jettySize=auto;html=1;exitX=0.5;exitY=1;exitDx=0;exitDy=0;entryX=0.5;entryY=0;entryDx=0;entryDy=0;" edge="1" parent="1" source="HUJ_rNuVP0fy5nguUogA-6" target="HUJ_rNuVP0fy5nguUogA-1">
          <mxGeometry relative="1" as="geometry">
            <Array as="points">
              <mxPoint x="190" y="320" />
              <mxPoint x="110" y="320" />
              <mxPoint x="110" y="20" />
              <mxPoint x="190" y="20" />
            </Array>
          </mxGeometry>
        </mxCell>
        <mxCell id="HUJ_rNuVP0fy5nguUogA-6" value="Pulse motors for 500 ms" style="rounded=0;whiteSpace=wrap;html=1;" vertex="1" parent="1">
          <mxGeometry x="130" y="240" width="120" height="60" as="geometry" />
        </mxCell>
        <mxCell id="HUJ_rNuVP0fy5nguUogA-10" value="Stop moving" style="rounded=0;whiteSpace=wrap;html=1;" vertex="1" parent="1">
          <mxGeometry x="300" y="130" width="120" height="60" as="geometry" />
        </mxCell>
      </root>
    </mxGraphModel>
  </diagram>
</mxfile>
